<mxfile host="65bd71144e">
    <diagram id="AGrGobrKvpmFNtco5mCq" name="Page-1">
        <mxGraphModel dx="959" dy="383" grid="0" gridSize="10" guides="1" tooltips="1" connect="1" arrows="1" fold="1" page="1" pageScale="1" pageWidth="850" pageHeight="1100" math="0" shadow="0">
            <root>
                <mxCell id="0"/>
                <mxCell id="1" parent="0"/>
                <mxCell id="2" value="Customer" style="swimlane;fontStyle=1;align=center;verticalAlign=top;childLayout=stackLayout;horizontal=1;startSize=26;horizontalStack=0;resizeParent=1;resizeParentMax=0;resizeLast=0;collapsible=1;marginBottom=0;fillColor=#FBC538;strokeColor=none;" parent="1" vertex="1">
                    <mxGeometry x="285" y="145" width="200" height="107" as="geometry"/>
                </mxCell>
                <mxCell id="3" value="&#xa;" style="text;align=left;verticalAlign=top;spacingLeft=4;spacingRight=4;overflow=hidden;rotatable=0;points=[[0,0.5],[1,0.5]];portConstraint=eastwest;horizontal=1;fillColor=default;strokeColor=default;glass=1;rounded=0;strokeWidth=0;" parent="2" vertex="1">
                    <mxGeometry y="26" width="200" height="28" as="geometry"/>
                </mxCell>
                <mxCell id="4" value="+Resize(source,newSize)&#xa;+getAt(source,index,sizeOf)" style="text;align=left;verticalAlign=top;spacingLeft=4;spacingRight=4;overflow=hidden;rotatable=0;points=[[0,0.5],[1,0.5]];portConstraint=eastwest;fillColor=default;gradientColor=none;strokeColor=default;strokeWidth=0;rounded=0;shadow=0;glass=1;" parent="2" vertex="1">
                    <mxGeometry y="54" width="200" height="53" as="geometry"/>
                </mxCell>
            </root>
        </mxGraphModel>
    </diagram>
</mxfile>